<?xml version="1.0" standalone="no"?>
<!DOCTYPE svg PUBLIC "-//W3C//DTD SVG 20010904//EN"
 "http://www.w3.org/TR/2001/REC-SVG-20010904/DTD/svg10.dtd">
<svg version="1.0" xmlns="http://www.w3.org/2000/svg"
 width="1432.000000pt" height="1432.000000pt" viewBox="0 0 1432.000000 1432.000000"
 preserveAspectRatio="xMidYMid meet">
<metadata>
Created by potrace 1.11, written by Peter Selinger 2001-2013
</metadata>
<g transform="translate(0.000000,1432.000000) scale(0.100000,-0.100000)"
fill="#000000" stroke="none">
<path d="M5498 14313 c-21 -43 -16 -893 6 -1009 3 -18 12 -87 21 -179 11 -107
17 -163 20 -190 2 -16 7 -66 10 -110 11 -134 24 -283 31 -335 3 -19 7 -53 9
-75 20 -194 42 -321 64 -371 22 -49 56 -70 126 -78 26 -3 50 -8 53 -10 2 -3 6
-36 8 -73 3 -37 6 -83 8 -101 2 -20 -3 -40 -14 -55 -38 -49 -44 -94 -45 -337
l0 -235 33 -46 c18 -25 49 -53 68 -62 32 -16 34 -19 35 -69 0 -29 2 -64 4 -78
2 -14 5 -72 6 -130 l2 -105 -52 -105 c-50 -99 -112 -287 -125 -375 -4 -34 -21
-124 -31 -175 -2 -8 -4 -21 -4 -28 -1 -12 -61 -14 -61 -2 0 3 -17 6 -37 5 -21
0 -42 1 -47 4 -14 6 -76 7 -76 0 0 -3 -28 -6 -62 -7 -96 -2 -188 -12 -198 -22
-3 -3 -22 -13 -42 -22 -21 -10 -38 -22 -38 -28 0 -5 -7 -10 -15 -10 -8 0 -15
-4 -15 -9 0 -5 -13 -7 -30 -6 -19 2 -27 -1 -23 -8 4 -6 0 -8 -10 -4 -10 3 -17
2 -17 -4 0 -6 -4 -8 -9 -4 -5 3 -13 0 -16 -6 -4 -5 -13 -8 -21 -5 -8 3 -14 1
-14 -3 0 -5 -7 -12 -16 -15 -10 -4 -13 -2 -8 7 6 9 5 9 -8 0 -8 -7 -18 -9 -22
-5 -4 4 -6 0 -4 -8 2 -8 -3 -14 -11 -12 -7 1 -19 -2 -27 -9 -7 -6 -19 -7 -26
-3 -7 4 -10 4 -6 -1 6 -7 -71 -55 -114 -71 -10 -3 -18 -10 -18 -15 0 -5 -4 -9
-9 -9 -16 0 -101 -61 -114 -81 -7 -11 -17 -19 -23 -19 -6 0 -32 -22 -58 -50
-25 -27 -46 -47 -46 -44 0 3 -12 -9 -27 -28 -16 -18 -38 -44 -51 -58 -42 -46
-130 -184 -184 -290 -29 -58 -56 -106 -60 -108 -5 -2 -8 -8 -8 -14 0 -5 -34
-78 -76 -161 -122 -244 -291 -716 -328 -917 -2 -14 -5 -25 -6 -25 -1 0 -3 -7
-5 -15 -2 -8 -14 -53 -25 -100 -12 -47 -23 -92 -25 -100 -18 -87 -86 -368 -99
-410 -8 -25 -22 -79 -30 -120 -9 -41 -18 -84 -21 -95 -26 -124 -55 -270 -59
-310 -3 -27 -8 -61 -10 -75 -20 -116 -37 -225 -42 -266 -11 -110 -13 -132 -20
-204 -4 -41 -8 -83 -8 -92 0 -10 -3 -18 -6 -18 -3 0 -7 -17 -8 -39 -2 -21 -5
-49 -8 -62 -2 -13 -7 -40 -10 -59 -3 -19 -7 -43 -10 -53 -3 -10 -7 -31 -10
-47 -6 -42 -12 -78 -24 -135 -6 -27 -13 -63 -15 -80 -2 -16 -8 -57 -14 -90 -6
-33 -13 -76 -15 -95 -12 -88 -17 -115 -30 -183 -8 -40 -24 -124 -36 -187 -11
-63 -22 -124 -24 -135 -7 -39 -19 -110 -22 -135 -1 -14 -5 -45 -8 -70 -8 -68
-39 -232 -52 -273 -4 -12 -8 -94 -9 -182 -2 -88 -6 -209 -10 -270 -4 -60 -8
-166 -10 -235 -2 -69 -7 -179 -11 -245 -15 -233 -1 -683 23 -745 3 -8 7 -35 9
-60 1 -25 5 -58 8 -75 3 -16 8 -52 11 -80 4 -27 12 -81 20 -120 8 -38 16 -83
19 -100 12 -70 41 -201 55 -250 5 -16 13 -46 17 -65 4 -19 8 -37 9 -40 1 -3 7
-39 14 -80 7 -41 15 -82 18 -90 4 -8 7 -17 8 -20 3 -12 16 -81 16 -87 1 -5 5
-15 9 -23 5 -9 11 -36 15 -60 4 -25 11 -50 16 -56 5 -6 7 -13 4 -16 -5 -5 -2
-18 60 -223 20 -66 43 -142 52 -170 24 -81 67 -195 110 -293 13 -29 23 -57 23
-62 0 -6 4 -10 9 -10 5 0 12 -10 16 -23 4 -12 8 -24 9 -27 1 -3 16 -34 34 -70
31 -63 130 -180 152 -180 5 0 10 -4 10 -8 0 -8 55 -49 145 -109 46 -31 383
-203 393 -201 4 1 30 -9 57 -21 28 -12 58 -23 68 -24 9 -1 17 -4 17 -8 0 -5
103 -39 165 -55 6 -2 37 -10 70 -20 33 -9 68 -18 78 -20 53 -12 64 -15 87 -19
14 -2 48 -9 75 -14 28 -5 159 -10 291 -11 218 0 247 1 310 21 38 11 73 25 78
30 6 5 16 9 23 9 17 0 187 82 191 93 2 4 8 5 13 1 5 -3 9 0 9 5 0 6 7 11 15
11 7 0 19 8 24 18 6 9 11 13 11 9 0 -5 15 3 33 18 47 40 158 145 152 145 -3 0
9 13 25 29 17 15 30 33 30 40 0 6 3 11 8 11 4 0 20 21 37 48 16 26 32 49 35
52 11 11 65 114 147 280 132 270 133 272 127 281 -3 5 -1 9 5 9 5 0 13 10 17
23 3 12 15 40 25 62 62 138 79 179 79 191 0 8 5 14 10 14 6 0 10 10 10 23 0
13 4 27 9 33 11 11 62 174 54 174 -3 0 -1 6 5 13 6 7 13 24 16 37 2 14 16 75
31 135 15 61 29 128 31 150 3 22 7 46 9 53 3 7 8 41 11 75 3 34 12 109 19 167
7 58 12 138 11 178 0 39 1 72 4 72 9 0 5 265 -4 279 -6 9 -5 12 1 8 13 -8 12
122 -1 142 -6 10 -6 12 2 7 7 -4 12 -1 12 8 0 9 -6 16 -12 16 -9 0 -10 3 -2 8
15 9 15 224 1 215 -6 -4 -7 -1 -1 8 10 16 14 119 5 119 -3 0 -6 24 -7 53 0 28
-4 79 -8 112 -27 212 -32 250 -36 250 -1 0 -3 9 -4 20 -5 42 -18 98 -25 114
-22 43 -41 93 -41 106 0 8 -5 15 -12 15 -6 0 -9 3 -5 6 3 3 -4 31 -14 62 -17
49 -36 121 -55 212 -2 14 -7 32 -9 40 -3 8 -7 33 -11 55 -7 47 -12 70 -14 70
-4 0 -9 127 -9 235 1 181 6 251 30 385 6 33 13 78 15 100 4 36 20 154 29 208
2 12 10 60 18 107 8 47 14 96 13 110 -1 14 2 30 6 36 5 7 8 16 7 20 -1 5 0 11
1 14 1 3 4 16 6 30 9 62 13 87 19 110 8 33 17 91 18 113 1 9 4 17 7 17 3 0 6
10 6 23 1 22 10 88 19 137 2 14 7 48 9 75 4 41 27 142 73 320 2 11 6 98 8 193
2 95 7 177 10 182 3 6 1 10 -6 10 -8 0 -8 4 -2 13 5 6 7 23 3 37 -3 14 -3 39
0 55 3 17 3 41 0 55 -4 14 -3 33 3 44 5 11 6 21 0 25 -5 3 -9 23 -9 44 1 21
-2 43 -5 49 -4 6 -3 22 2 35 5 12 5 23 1 23 -5 0 -7 16 -6 35 2 24 0 33 -8 29
-7 -5 -8 -2 -2 7 10 16 14 59 5 59 -3 0 -7 33 -7 73 -1 39 -4 106 -8 147 -4
41 -9 106 -11 144 -3 38 -7 72 -9 75 -3 3 -7 33 -11 66 -3 33 -7 72 -9 88 -4
30 -1 29 57 -23 27 -25 27 -26 32 -184 3 -87 8 -174 11 -194 3 -21 5 -44 5
-52 -3 -91 3 -164 14 -172 6 -5 5 -8 -4 -8 -9 0 -10 -4 -4 -12 6 -7 10 -38 10
-69 0 -31 2 -60 5 -65 2 -5 4 -22 3 -39 -1 -16 2 -36 8 -42 6 -9 6 -13 -2 -13
-7 0 -9 -5 -6 -10 6 -10 18 -172 16 -218 0 -13 3 -31 8 -40 9 -17 25 -167 23
-212 -1 -14 3 -55 9 -92 6 -37 9 -69 7 -71 -1 -2 3 -11 11 -20 7 -10 11 -17 8
-17 -4 0 2 -20 13 -45 11 -25 17 -45 13 -45 -3 0 2 -9 12 -20 10 -11 15 -20
11 -20 -3 0 0 -16 8 -35 8 -19 12 -35 9 -35 -3 0 0 -7 7 -15 6 -8 9 -19 5 -25
-3 -5 -2 -10 2 -10 5 0 9 -8 10 -17 2 -31 9 -67 16 -83 4 -8 13 -40 21 -70 24
-90 36 -131 61 -205 13 -38 27 -86 31 -105 10 -46 8 -39 24 -90 7 -25 17 -50
22 -56 5 -7 11 -22 13 -35 3 -12 11 -43 19 -68 14 -45 28 -97 32 -116 1 -5 3
-12 4 -15 2 -6 6 -24 13 -60 3 -14 22 -90 42 -170 20 -80 38 -153 40 -163 2
-10 13 -50 24 -90 25 -93 45 -192 55 -272 3 -16 8 -48 12 -70 22 -106 4 -361
-38 -550 -11 -49 -22 -99 -24 -110 -2 -11 -7 -42 -10 -70 -6 -58 -6 -703 0
-755 3 -19 7 -64 11 -100 4 -36 8 -78 10 -95 2 -16 5 -51 7 -77 1 -27 5 -48 8
-48 3 0 5 -17 4 -37 -1 -21 1 -42 4 -47 3 -5 6 -25 7 -45 2 -32 10 -77 31
-186 8 -41 11 -62 19 -120 3 -27 10 -68 15 -90 5 -22 12 -56 15 -75 9 -54 35
-159 55 -225 10 -33 33 -112 50 -175 17 -63 52 -158 77 -210 26 -52 47 -99 47
-103 1 -4 7 -11 14 -16 8 -5 14 -12 14 -17 2 -26 98 -193 190 -332 26 -41 48
-76 48 -79 0 -3 11 -21 25 -38 13 -18 21 -35 18 -39 -4 -3 -1 -6 5 -6 7 0 12
-7 12 -15 0 -8 5 -15 10 -15 6 0 10 -5 10 -10 0 -9 86 -146 100 -160 3 -3 22
-31 43 -63 20 -31 44 -65 51 -75 8 -9 38 -46 66 -82 81 -103 173 -193 226
-220 27 -14 57 -31 67 -39 9 -8 17 -11 17 -7 0 4 10 1 23 -6 12 -7 25 -11 30
-10 4 1 7 -3 7 -9 0 -5 4 -8 8 -5 5 3 41 -10 80 -29 39 -18 83 -36 99 -39 15
-3 64 -15 108 -26 70 -18 101 -20 250 -16 155 5 189 7 258 20 35 6 108 26 157
43 25 8 53 16 62 18 9 2 26 9 37 15 12 6 21 8 21 4 0 -3 6 -2 13 3 6 6 48 22
93 36 99 32 170 62 178 76 4 5 14 7 23 4 11 -4 14 -3 9 5 -4 7 -1 12 8 12 9 0
16 4 16 10 0 5 4 9 9 7 11 -3 90 46 91 56 0 5 5 5 10 2 6 -3 10 -1 10 4 0 6 6
11 14 11 8 0 16 3 18 8 5 12 86 72 97 72 6 0 11 5 11 10 0 6 7 10 16 10 8 0
13 4 10 8 -5 9 54 48 66 44 5 -1 7 3 5 9 -1 6 13 19 30 28 18 10 30 21 26 25
-6 5 12 10 30 7 4 0 7 6 7 14 0 8 10 20 23 26 12 7 27 19 33 27 7 9 16 12 24
7 9 -5 11 -4 6 3 -4 7 -2 12 5 12 7 0 9 3 6 7 -4 3 7 15 24 25 16 10 28 22 25
27 -3 5 6 12 19 15 14 4 23 11 20 16 -3 6 -3 10 2 10 10 0 61 64 65 81 2 8 9
20 16 27 7 8 10 18 7 23 -4 5 -1 9 5 9 6 0 9 4 6 9 -4 5 -2 11 2 13 16 6 114
268 126 338 3 14 5 25 6 25 1 0 3 7 5 15 2 8 6 29 10 45 4 17 8 42 8 57 1 16
5 28 8 28 3 0 6 6 6 13 1 19 14 101 18 107 2 3 6 23 9 45 4 22 13 67 20 100
20 87 28 149 33 245 2 47 5 122 7 167 2 44 7 86 10 92 4 6 3 11 -2 11 -5 0 -9
7 -9 15 0 8 3 13 6 11 3 -2 7 30 9 72 4 103 6 125 15 140 5 7 3 12 -3 12 -7 0
-8 6 -2 18 5 9 10 35 11 57 0 22 3 74 6 115 10 141 19 365 19 495 0 128 -12
363 -19 375 -2 3 -4 32 -6 65 -1 33 -4 64 -7 70 -3 5 -8 28 -10 50 -4 48 -9
88 -12 95 -1 3 -2 9 -1 14 1 5 -1 16 -5 25 -4 9 -7 27 -7 41 0 14 -5 28 -11
32 -7 5 -6 8 3 8 11 0 11 3 0 17 -12 15 -12 16 1 8 12 -7 13 -6 4 6 -15 19
-27 82 -14 74 6 -3 7 1 4 9 -3 9 -10 16 -15 16 -4 0 -6 14 -4 30 2 18 -1 30
-8 30 -7 0 -6 4 3 10 8 5 10 10 4 10 -6 0 -10 11 -9 25 2 14 -1 25 -7 25 -6 0
-5 6 2 15 7 8 8 15 3 15 -5 0 -10 6 -10 13 -2 49 -56 332 -63 332 -1 0 -3 7
-5 16 -1 9 -10 41 -18 70 -9 30 -18 65 -21 79 -2 14 -8 36 -13 50 -5 14 -9 36
-8 50 0 14 -3 27 -7 30 -3 3 -8 17 -10 30 -2 14 -7 31 -11 38 -5 6 -5 17 -2
22 3 6 1 10 -6 10 -7 0 -9 3 -6 7 4 3 1 13 -6 21 -9 13 -9 14 0 8 9 -5 11 -2
7 8 -3 9 -9 14 -14 11 -4 -2 -5 7 -2 20 2 14 0 25 -5 25 -9 0 -11 7 -14 48 -1
9 -6 22 -10 28 -5 6 -10 23 -11 38 -1 14 -6 26 -11 26 -5 0 -7 7 -4 15 4 8 2
17 -4 20 -5 4 -7 11 -4 16 4 5 2 9 -3 9 -8 0 -10 6 -14 50 -1 11 -6 20 -11 20
-4 0 -6 4 -2 9 3 5 1 12 -4 16 -5 3 -8 14 -6 25 2 11 -1 20 -7 20 -6 0 -8 3
-5 7 4 3 -1 15 -10 26 -11 13 -12 17 -4 12 11 -6 10 -2 -2 16 -19 27 -22 43
-6 33 6 -3 3 5 -6 19 -9 15 -13 32 -9 38 5 8 3 9 -6 4 -10 -6 -12 -4 -7 8 3
10 3 17 -2 17 -7 0 -11 15 -12 53 0 9 -4 15 -10 12 -5 -4 -9 0 -9 9 0 8 6 17
13 19 7 3 5 6 -5 6 -11 1 -15 6 -12 16 4 8 1 15 -6 15 -9 0 -9 4 1 17 8 9 9
14 2 10 -7 -5 -14 6 -18 33 -4 22 -10 42 -15 45 -4 3 -6 14 -3 25 3 12 0 20
-8 20 -7 0 -9 3 -6 7 4 3 2 12 -4 20 -9 10 -8 13 1 13 10 0 9 5 -2 18 -9 9
-13 23 -11 30 3 6 0 12 -6 12 -6 0 -11 5 -11 11 0 5 6 7 13 3 6 -4 3 3 -8 16
-12 14 -14 20 -5 15 12 -6 13 -5 3 6 -7 7 -13 21 -13 31 0 10 -5 18 -12 18 -9
0 -9 3 -1 11 9 9 8 16 -3 27 -13 12 -13 16 -2 23 10 7 10 9 0 9 -6 0 -11 3
-11 8 1 4 0 10 -1 15 -1 4 -4 12 -5 17 -1 6 -3 11 -5 13 -3 3 -10 39 -17 80
-3 20 -10 37 -15 37 -6 0 -8 9 -5 20 3 11 1 23 -4 26 -6 3 -8 11 -6 17 2 7 -2
24 -10 40 -7 15 -10 27 -6 27 5 0 1 5 -7 10 -11 7 -12 10 -2 10 10 0 10 4 -2
16 -18 17 -22 39 -6 29 5 -3 7 0 4 9 -3 8 -12 17 -21 20 -12 5 -13 9 -4 20 8
9 8 16 2 20 -6 4 -8 13 -4 21 3 8 1 15 -4 15 -5 0 -10 14 -11 32 -2 18 -6 35
-10 38 -4 3 -8 14 -8 25 -2 25 -10 60 -24 105 -6 19 -13 46 -16 59 -3 13 -9
32 -15 43 -5 10 -8 18 -5 18 4 0 -18 83 -60 225 -8 28 -16 55 -17 60 -1 6 -6
15 -9 21 -4 6 -9 23 -12 38 -3 16 -12 39 -21 52 -9 14 -13 29 -10 34 3 6 1 10
-6 10 -7 0 -9 3 -6 7 4 3 0 17 -9 31 -11 17 -12 22 -3 17 8 -5 6 1 -3 12 -20
21 -24 38 -8 28 6 -3 7 1 4 9 -3 9 -10 16 -16 16 -5 0 -7 4 -3 9 3 5 -2 17
-11 25 -11 12 -12 16 -2 16 10 0 10 2 -1 9 -7 5 -10 14 -7 20 4 6 0 14 -9 17
-13 6 -14 8 -3 15 7 5 8 9 2 9 -6 0 -11 6 -12 13 -2 20 -7 40 -19 72 -22 59
-26 70 -28 80 -3 12 -60 155 -82 205 -8 19 -20 46 -25 60 -6 14 -14 33 -19 42
-5 10 -9 25 -9 33 0 8 -5 15 -11 15 -5 0 -8 4 -5 8 3 5 -1 20 -9 35 -8 15 -12
27 -10 27 2 0 -11 30 -29 68 -18 37 -45 93 -60 124 -15 32 -32 60 -37 63 -5 4
-6 11 -3 17 4 6 3 13 -2 17 -5 3 -20 27 -33 54 -13 26 -28 47 -32 47 -4 0 -13
16 -19 35 -6 19 -16 33 -21 30 -5 -4 -9 1 -9 10 0 17 -39 82 -64 107 -8 9 -17
22 -18 29 -2 8 -9 20 -16 27 -7 8 -10 17 -7 22 3 5 2 10 -2 12 -10 4 -75 136
-71 144 2 3 -5 10 -15 15 -9 6 -15 14 -12 20 4 5 1 9 -4 9 -6 0 -11 7 -11 15
0 9 -7 18 -15 21 -8 4 -13 10 -10 14 3 4 -4 19 -15 32 -11 14 -16 28 -13 32 3
3 -1 6 -11 6 -9 0 -14 5 -11 10 3 6 2 10 -4 10 -6 0 -15 10 -22 21 -9 17 -8
20 3 14 7 -4 3 2 -10 14 -12 12 -19 27 -16 33 4 6 3 8 -4 4 -6 -3 -13 2 -17
13 -3 11 -12 22 -20 25 -8 3 -15 12 -15 21 0 8 -4 15 -10 15 -5 0 -10 7 -10
16 0 8 -4 12 -10 9 -5 -3 -10 3 -10 14 0 12 -5 21 -11 21 -5 0 -7 5 -4 10 4 6
3 9 -2 8 -10 -3 -63 43 -63 55 0 5 -16 24 -34 42 -19 18 -32 35 -29 39 4 3 -1
6 -11 6 -9 0 -14 5 -11 10 6 9 -8 15 -29 11 -5 -1 -3 5 4 14 7 9 9 15 4 14
-25 -4 -36 2 -30 18 4 10 4 14 0 10 -4 -4 -31 14 -60 38 -50 43 -128 87 -274
153 -36 16 -74 32 -86 36 -11 3 -58 57 -104 119 -46 61 -107 139 -135 171
-112 132 -213 245 -285 320 -86 90 -75 78 -160 176 -35 41 -88 100 -117 130
-29 30 -63 71 -76 90 -24 36 -58 148 -76 255 -21 119 -21 132 -1 150 40 36 48
104 36 295 -4 58 -9 123 -12 145 -3 22 -7 60 -10 85 -8 69 -32 136 -61 164
-14 14 -30 26 -35 26 -5 0 -8 30 -6 67 3 66 3 66 33 70 72 8 93 15 116 39 21
23 24 36 26 114 1 49 -4 111 -12 141 -8 29 -19 95 -25 148 -18 160 -19 174
-25 236 -3 33 -8 67 -10 75 -2 8 -7 39 -10 69 -4 30 -9 63 -11 75 -10 52 -18
238 -18 431 0 236 10 415 34 605 10 73 17 147 24 242 l3 48 -1148 0 c-631 0
-1149 -3 -1151 -7z"/>
<path d="M9285 9441 c-3 -5 -2 -12 3 -15 5 -3 9 1 9 9 0 17 -3 19 -12 6z"/>
</g>
</svg>
