<?xml version="1.0" standalone="no"?>
<!DOCTYPE svg PUBLIC "-//W3C//DTD SVG 20010904//EN"
 "http://www.w3.org/TR/2001/REC-SVG-20010904/DTD/svg10.dtd">
<svg version="1.0" xmlns="http://www.w3.org/2000/svg"
 width="571.000000pt" height="571.000000pt" viewBox="0 0 571.000000 571.000000"
 preserveAspectRatio="xMidYMid meet">
<metadata>
Created by potrace 1.11, written by Peter Selinger 2001-2013
</metadata>
<g transform="translate(0.000000,571.000000) scale(0.100000,-0.100000)"
fill="#000000" stroke="none">
<path d="M2605 5702 c-3 -4 -37 -9 -100 -16 -27 -3 -61 -8 -75 -10 -14 -2 -45
-7 -70 -10 -129 -20 -369 -82 -445 -115 -36 -16 -110 -43 -126 -46 -9 -2 -25
-8 -35 -13 -11 -6 -75 -38 -144 -71 -168 -82 -310 -163 -318 -183 -2 -5 -9 -8
-15 -8 -6 0 -72 -46 -146 -102 -211 -160 -479 -438 -606 -628 -16 -25 -34 -48
-40 -52 -7 -5 -7 -8 0 -8 7 0 7 -3 0 -8 -20 -14 -120 -179 -146 -239 -8 -18
-17 -33 -21 -33 -5 0 -8 -4 -8 -9 0 -6 -18 -47 -39 -93 -58 -124 -119 -282
-147 -383 -20 -72 -34 -125 -38 -145 -2 -14 -14 -70 -26 -125 -42 -199 -47
-262 -44 -588 2 -161 5 -305 9 -322 3 -16 7 -46 9 -65 5 -42 13 -82 26 -129 5
-19 7 -38 4 -43 -3 -4 -1 -8 3 -8 5 0 9 -8 10 -17 1 -34 15 -98 24 -115 5 -10
8 -18 5 -18 -3 0 0 -15 5 -32 6 -18 12 -40 14 -48 6 -26 57 -164 76 -207 11
-23 19 -45 19 -48 0 -18 131 -287 143 -296 5 -3 9 -10 9 -15 1 -17 21 -54 30
-54 4 0 8 -5 8 -11 0 -10 147 -239 160 -249 3 -3 33 -39 65 -80 92 -116 242
-272 356 -370 35 -30 73 -62 84 -72 39 -33 187 -139 211 -150 13 -6 24 -15 24
-20 0 -4 5 -8 11 -8 6 0 31 -14 55 -31 49 -33 301 -164 374 -193 46 -19 283
-104 310 -111 8 -3 35 -9 60 -16 25 -6 54 -13 65 -16 41 -10 111 -25 140 -29
17 -3 41 -7 55 -10 13 -3 47 -8 75 -10 27 -3 64 -8 80 -10 52 -10 529 -12 560
-4 17 5 71 11 120 14 50 2 104 7 120 10 17 4 41 9 55 11 14 3 36 8 50 10 14 3
36 7 50 10 14 4 36 8 50 11 45 9 134 35 185 54 28 10 101 37 162 60 247 90
563 275 772 450 36 30 74 62 84 70 20 16 192 189 242 242 58 62 151 184 215
278 35 52 67 97 71 100 4 3 26 43 50 90 24 47 49 90 54 96 12 13 90 186 149
329 22 56 77 223 82 254 1 7 8 34 14 60 6 25 13 56 15 68 3 13 8 33 11 45 3
13 7 30 8 38 2 8 6 31 10 50 4 19 9 51 11 70 2 19 4 35 5 35 14 0 20 609 8
715 -10 82 -17 132 -25 165 -3 17 -8 37 -9 45 -48 244 -99 408 -202 643 -12
26 -20 48 -19 50 1 1 -8 18 -19 37 -12 19 -35 60 -51 90 -17 30 -40 73 -52 95
-34 60 -166 256 -197 290 -14 17 -34 41 -43 55 -36 55 -308 336 -373 385 -192
147 -270 205 -274 205 -3 0 -35 20 -72 44 -68 45 -269 150 -377 197 -167 74
-374 139 -520 164 -16 3 -37 8 -45 10 -13 3 -41 8 -125 20 -11 2 -40 6 -65 9
-25 3 -63 9 -85 13 -38 6 -524 11 -530 5z"/>
</g>
</svg>
